<svg xmlns:dc="http://purl.org/dc/elements/1.1/" xmlns:cc="http://creativecommons.org/ns#" xmlns:rdf="http://www.w3.org/1999/02/22-rdf-syntax-ns#" xmlns:svg="http://www.w3.org/2000/svg" xmlns="http://www.w3.org/2000/svg" xmlns:sodipodi="http://sodipodi.sourceforge.net/DTD/sodipodi-0.dtd" xmlns:inkscape="http://www.inkscape.org/namespaces/inkscape" version="1.1" x="0px" y="0px" viewBox="0 0 100 125"><g transform="translate(0,-952.36218)"><path style="font-size:medium;font-style:normal;font-variant:normal;font-weight:normal;font-stretch:normal;text-indent:0;text-align:start;text-decoration:none;line-height:normal;letter-spacing:normal;word-spacing:normal;text-transform:none;direction:ltr;block-progression:tb;writing-mode:lr-tb;text-anchor:start;baseline-shift:baseline;opacity:1;color:#000000;fill:#000000;fill-opacity:1;stroke:none;stroke-width:3.99999714000000010;marker:none;visibility:visible;display:inline;overflow:visible;enable-background:accumulate;font-family:Sans;-inkscape-font-specification:Sans" d="M 50 12 L 50 14 L 50 38 L 50 40 L 52 40 L 54 40 L 54 46 L 54 48 L 56 48 L 58 48 L 58.90625 48 L 59.5 47.3125 L 65.90625 40 L 86 40 L 88 40 L 88 38 L 88 14 L 88 12 L 86 12 L 52 12 L 50 12 z M 54 16 L 84 16 L 84 36 L 65 36 L 64.09375 36 L 63.5 36.6875 L 58 42.96875 L 58 38 L 58 36 L 56 36 L 54 36 L 54 16 z M 27 17.15625 L 25.59375 18.5625 L 12.59375 31.5625 L 11.9375 32.21875 L 12 33.15625 C 12.920941 44.73833 19.463866 58.27645 30.59375 69.40625 C 41.723569 80.53615 55.261669 87.04775 66.84375 87.96875 L 67.75 88.0625 L 68.40625 87.40625 L 81.40625 74.40625 L 82.84375 73 L 81.40625 71.5625 L 68.40625 58.5625 L 67 57.15625 L 65.59375 58.5625 L 57.71875 66.4375 C 52.890671 63.685 48.399317 60.49295 43.9375 56.03125 C 39.475095 51.56875 36.283991 47.11025 33.53125 42.28125 L 41.40625 34.40625 L 42.84375 33 L 41.40625 31.5625 L 28.40625 18.5625 L 27 17.15625 z M 27 22.8125 L 37.1875 33 L 29.59375 40.5625 L 28.53125 41.625 L 29.25 42.9375 C 32.303964 48.5446 35.995481 53.7453 41.125 58.875 C 46.254677 64.0045 51.42417 67.696 57.03125 70.75 L 58.34375 71.46875 L 59.40625 70.40625 L 67 62.8125 L 77.1875 73 L 66.3125 83.84375 C 56.136371 82.78095 43.661675 76.8179 33.40625 66.5625 C 23.142025 56.2983 17.211401 43.83707 16.15625 33.65625 L 27 22.8125 z " transform="translate(0,952.36218)"/></g></svg>