<svg xmlns="http://www.w3.org/2000/svg" xmlns:xlink="http://www.w3.org/1999/xlink" version="1.1" x="0px" y="0px" viewBox="0 0 100 125" enable-background="new 0 0 100 100" xml:space="preserve"><path fill="#000000" d="M7.076,49.961L50,20.178l42.924,29.783l1.184-1.707L51.184,18.472c-0.356-0.246-0.77-0.37-1.184-0.37  s-0.827,0.124-1.184,0.37L5.893,48.254"/><path fill="#000000" d="M81.32,79.822H56.549V56.957H43.451v22.865H18.68V47.447h-2.076v32.375c0,1.146,0.929,2.076,2.076,2.076  h24.771c1.147,0,2.076-0.93,2.076-2.076V59.033h8.945v20.789c0,1.146,0.929,2.076,2.076,2.076H81.32c1.147,0,2.076-0.93,2.076-2.076  V47.447H81.32V79.822z"/></svg>