<svg xmlns="http://www.w3.org/2000/svg" xmlns:xlink="http://www.w3.org/1999/xlink" version="1.1" x="0px" y="0px" viewBox="0 0 100 84.75" style="enable-background:new 0 0 100 67.8;" xml:space="preserve"><path d="M9.1,64.6c-1.1,1.1-3,1.2-4.2,0l-1-1c-1.2-1.1-1.2-3,0-4.2l1.1-1.1c1.1-1.1,3-1.1,4.2,0l1,1c1.1,1.1,1.1,3,0,4.2L9.1,64.6z   M71.7,64.2c-1.1,1.1-3,1.1-4.2,0l-1-1c-1.1-1.1-1.2-3,0-4.2l1-1c1.1-1.2,3-1.2,4.2,0l1.1,1.1c1.1,1.1,1.1,3,0,4.2L71.7,64.2z   M82.1,55.9c-1.1,1.1-3,1.2-4.2,0l-1-1c-1.2-1.1-1.2-3,0-4.2l1.1-1.1c1.1-1.1,3-1.1,4.2,0l1,1c1.1,1.1,1.1,3,0,4.2L82.1,55.9z   M61.1,53.8c-1.2,1.1-3.1,1-4.2-0.1l-1-1.1c-1.1-1.2-1-3.1,0.1-4.2l1.1-1c1.2-1.1,3.1-1.1,4.2,0.1l1,1.1c1.1,1.2,1,3.1-0.1,4.2  L61.1,53.8z M30,43.7c-1.1,1.1-3,1.2-4.2,0l-1-1c-1.2-1.1-1.2-3,0-4.2l1.1-1.1c1.1-1.1,3-1.1,4.2,0l1,1c1.1,1.1,1.1,3,0,4.2L30,43.7  z M40.4,33.3c-1.1,1.1-3,1.2-4.2,0l-1-1c-1.2-1.1-1.2-3,0-4.2l1.1-1.1c1.1-1.1,3-1.1,4.2,0l1,1c1.1,1.1,1.1,3,0,4.2L40.4,33.3z"/><path d="M92.3,50.4c-0.6,1.5-1.6,1.5-2.2,0L89,47.6c-0.6-1.5-2.3-3.2-3.8-3.8l-2.8-1.1c-1.5-0.6-1.5-1.6,0-2.2l14.1-5.7  c1.5-0.6,2.2,0.1,1.6,1.6L92.3,50.4z"/><path d="M84.8,2.3L70.7,8c-1.5,0.6-1.5,1.6,0,2.2l1.8,0.7L29.7,53.7c-1.1,1.1-3,1.1-4.2,0L9.5,37.7c-1.1-1.1-3-1.1-4.2,0l-1,1  c-1.1,1.1-1.1,3,0,4.2l21.3,21.3c1.1,1.1,3,1.1,4.2,0l48-48l0.7,1.8c0.6,1.5,1.6,1.5,2.2,0l5.7-14.1C87,2.4,86.3,1.7,84.8,2.3z"/></svg>