<svg xmlns="http://www.w3.org/2000/svg" data-name="Layer 1" viewBox="0 0 100 125" x="0px" y="0px"><title>Artboard 333</title><circle cx="50" cy="50" r="4"/><path d="M77.25,28.19A13.81,13.81,0,0,0,84,30,14,14,0,1,0,70,16a13.81,13.81,0,0,0,1.81,6.75,3.71,3.71,0,0,0-.64.42L61,33.33a19.87,19.87,0,0,0-22,0L28.83,23.17a3.71,3.71,0,0,0-.64-.42A13.81,13.81,0,0,0,30,16,14,14,0,1,0,16,30a13.81,13.81,0,0,0,6.75-1.81,3.71,3.71,0,0,0,.42.64L33.33,39a19.87,19.87,0,0,0,0,22L23.17,71.17a3.71,3.71,0,0,0-.42.64A13.81,13.81,0,0,0,16,70,14,14,0,1,0,30,84a13.81,13.81,0,0,0-1.81-6.75,3.71,3.71,0,0,0,.64-.42L39,66.67a19.87,19.87,0,0,0,22,0L71.17,76.83a3.71,3.71,0,0,0,.64.42A13.81,13.81,0,0,0,70,84,14,14,0,1,0,84,70a13.81,13.81,0,0,0-6.75,1.81,3.71,3.71,0,0,0-.42-.64L66.67,61a19.87,19.87,0,0,0,0-22L76.83,28.83A3.71,3.71,0,0,0,77.25,28.19ZM16,22a6,6,0,1,1,6-6A6,6,0,0,1,16,22Zm0,68a6,6,0,1,1,6-6A6,6,0,0,1,16,90ZM84,78a6,6,0,1,1-6,6A6,6,0,0,1,84,78ZM38,50A12,12,0,1,1,50,62,12,12,0,0,1,38,50ZM84,10a6,6,0,1,1-6,6A6,6,0,0,1,84,10Z"/></svg>