<svg xmlns="http://www.w3.org/2000/svg" xmlns:xlink="http://www.w3.org/1999/xlink" version="1.1" x="0px" y="0px" viewBox="0 0 68 85" style="enable-background:new 0 0 68 68;" xml:space="preserve"><style type="text/css">
	.st0{fill:#010101;}
	.st1{fill:none;stroke:#010101;stroke-width:2;stroke-linecap:round;stroke-linejoin:round;stroke-miterlimit:10;}
</style><g><g><path class="st0" d="M3,30.5C3,15.3,15.4,3,30.5,3C37,3,43.2,5.2,48.1,9.3L44.3,9c-0.5,0-1,0.4-1.1,0.9c0,0.6,0.4,1,0.9,1.1    l6.6,0.4c0.7,0,1.2-0.6,1-1.2L50.2,4c-0.1-0.5-0.7-0.9-1.2-0.7c-0.5,0.1-0.9,0.7-0.7,1.2l0.8,3C43.8,3.3,37.4,1,30.5,1    C14.3,1,1,14.2,1,30.5c0,6.1,1.8,11.9,5.3,16.9c0.3,0.5,0.9,0.6,1.4,0.2c0.5-0.3,0.6-0.9,0.2-1.4C4.7,41.6,3,36.2,3,30.5z"/></g><g><path class="st0" d="M66.1,47.3L63,46.8c-0.3-1.3-0.8-2.5-1.5-3.7l1.9-2.5c0.3-0.4,0.3-1-0.1-1.4l-2.5-2.5    c-0.4-0.4-0.9-0.4-1.3-0.1l-0.1,0c1.7-7.9,0.2-16.1-4.5-22.9c-0.3-0.5-0.9-0.6-1.4-0.3c-0.5,0.3-0.6,0.9-0.3,1.4    c4.7,6.9,6,15.6,3.6,23.6c-1.1-0.7-2.3-1.2-3.6-1.5L52.9,34c-0.1-0.5-0.5-0.9-1-0.9h-3.6c-0.5,0-0.9,0.4-1,0.9l-0.4,3.1    c-1.3,0.3-2.5,0.8-3.7,1.5l-2.5-1.9c-0.4-0.3-1-0.3-1.3,0.1l-2.5,2.5c-0.4,0.4-0.4,0.9-0.1,1.3l1.9,2.5c-0.7,1.1-1.2,2.4-1.5,3.7    L34,47.3c-0.5,0.1-0.9,0.5-0.9,1v3.6c0,0.5,0.4,0.9,0.9,1l3.1,0.4c0.3,1.3,0.8,2.4,1.4,3.5C36,57.6,33.3,58,30.5,58    C24.1,58,18,55.8,13,51.8l3.2,0.1c0,0,0,0,0,0c0.5,0,1-0.4,1-1c0-0.6-0.4-1-1-1l-5.9-0.2c-0.6,0-1.1,0.6-1,1.2l1.2,5.7    c0.1,0.5,0.7,0.9,1.2,0.8c0.5-0.1,0.9-0.6,0.8-1.2L12,53.5c5.2,4.2,11.7,6.5,18.5,6.5c2.1,0,4.3-0.2,6.3-0.7l-0.1,0.1    c-0.3,0.4-0.3,1,0.1,1.3l2.5,2.5c0.4,0.4,0.9,0.4,1.3,0.1l2.5-1.9c1.1,0.7,2.4,1.2,3.7,1.5l0.4,3.1c0.1,0.5,0.5,0.9,1,0.9h3.6    c0.5,0,0.9-0.4,1-0.9l0.4-3.1c1.3-0.3,2.5-0.8,3.7-1.5l2.5,1.9c0.4,0.3,1.1,0.3,1.4-0.1l2.5-2.5c0.4-0.4,0.4-0.9,0.1-1.3l-1.9-2.5    c0.7-1.1,1.2-2.4,1.5-3.7l3.1-0.4c0.5-0.1,0.9-0.5,0.9-1v-3.6C67,47.8,66.6,47.3,66.1,47.3z M65,51l-2.9,0.4    c-0.4,0.1-0.8,0.4-0.9,0.8c-0.3,1.5-0.9,3-1.8,4.3c-0.2,0.4-0.2,0.8,0,1.2l1.8,2.4L60,61.3l-2.4-1.8c-0.3-0.3-0.8-0.3-1.2,0    c-1.3,0.9-2.7,1.5-4.2,1.8c-0.4,0.1-0.7,0.4-0.8,0.9L51,65h-1.8l-0.4-3c-0.1-0.4-0.4-0.8-0.8-0.9c-1.5-0.3-3-0.9-4.2-1.8    c-0.4-0.2-0.8-0.2-1.2,0l-2.4,1.8L38.9,60l1.8-2.3c0.3-0.3,0.3-0.9,0-1.2c-0.9-1.3-1.4-2.7-1.7-4.2c-0.1-0.4-0.4-0.7-0.9-0.8    L35.2,51v-1.9l2.9-0.4c0.4-0.1,0.8-0.4,0.9-0.8c0.3-1.5,0.9-3,1.8-4.3c0.2-0.4,0.2-0.8,0-1.2l-1.8-2.4l1.3-1.3l2.3,1.8    c0.3,0.3,0.9,0.3,1.2,0c1.3-0.9,2.7-1.4,4.2-1.7c0.4-0.1,0.7-0.4,0.8-0.9l0.4-3H51l0.4,3c0.1,0.4,0.4,0.8,0.8,0.9    c1.5,0.3,3,0.9,4.2,1.8c0.4,0.2,0.8,0.2,1.2,0l2.4-1.8l1.3,1.3l-1.8,2.4c-0.3,0.3-0.3,0.8,0,1.2c0.9,1.3,1.5,2.7,1.8,4.3    c0.1,0.4,0.4,0.7,0.9,0.8l2.9,0.4V51z"/></g><g><path class="st0" d="M50.1,41.5c-4.7,0-8.6,3.9-8.6,8.6c0,4.7,3.9,8.6,8.6,8.6c4.7,0,8.6-3.9,8.6-8.6    C58.7,45.3,54.8,41.5,50.1,41.5z M50.1,56.6c-3.6,0-6.6-3-6.6-6.6s3-6.6,6.6-6.6c3.6,0,6.6,3,6.6,6.6S53.7,56.6,50.1,56.6z"/></g><g><path class="st0" d="M37.8,20.8c0-7.3-6.3-13.2-13.7-12.7C17.8,8.4,12.6,13.4,12,19.6c-0.3,3.8,1,7.5,3.7,10.2    c1.9,1.9,3.1,4.4,3.4,6.9l-2,0c-0.4,0-0.8,0.2-1.1,0.5s-0.5,0.7-0.5,1.1l0,4.5c0,0.9,0.7,1.6,1.6,1.6c0,0,0,0,0,0l2.7,0l0,2.4    c0,1.7,1.7,3.1,3.9,3.1c0,0,0,0,0,0l2.3,0c2.2,0,3.9-1.4,3.9-3.1l0-2.4l2.7,0c0.9,0,1.6-0.7,1.6-1.6l0-4.5c0-0.9-0.7-1.6-1.6-1.6    l-2,0c0.3-2.6,1.5-5,3.4-7C36.6,27.3,37.8,24.1,37.8,20.8z M28.1,46.8c0,0.5-0.8,1.1-1.9,1.1l-2.3,0h0c-1.1,0-1.9-0.6-1.9-1.1    l0-2.4l6.1,0L28.1,46.8z M32.4,42.3c0,0-14.4,0.1-14.7,0.1l0-3.6c5.7,0,9.5,0,14.7-0.1L32.4,42.3z M28.8,36.7l-2.8,0v-9.6    c1.9-0.4,3.4-2.2,3.4-4.2c0-2.4-1.9-4.3-4.3-4.3s-4.3,1.9-4.3,4.3c0,2,1.4,3.7,3.3,4.2v9.6l-2.8,0c-0.3-3.1-1.8-6-4.1-8.3    c-2.3-2.3-3.4-5.4-3.1-8.6c0.5-5.3,4.9-9.5,10.2-9.8c0.2,0,0.4,0,0.7,0c6,0,10.9,4.8,10.9,10.8c0,2.8-1.1,5.5-3,7.6    C30.5,30.6,29.1,33.6,28.8,36.7z M25,25.2c-1.3,0-2.3-1.1-2.3-2.3c0-1.3,1-2.3,2.3-2.3c1.3,0,2.3,1,2.3,2.3    C27.3,24.2,26.3,25.2,25,25.2z"/></g><g><path class="st0" d="M20.3,14.7c-0.4-0.4-1-0.3-1.4,0.1c-0.4,0.4-0.3,1,0.1,1.4l1.9,1.7c0.4,0.4,1,0.3,1.4-0.1    c0.4-0.4,0.3-1-0.1-1.4L20.3,14.7z"/></g><g><path class="st0" d="M24.9,12.7L24.9,12.7c-0.6,0-1,0.4-1,1l0,2.4c0,0.6,0.4,1,1,1h0c0.6,0,1-0.4,1-1l0-2.4    C25.9,13.2,25.4,12.7,24.9,12.7z"/></g><g><path class="st0" d="M29.5,14.7l-1.9,1.7c-0.4,0.4-0.4,1-0.1,1.4c0.4,0.4,1,0.4,1.4,0.1l1.9-1.7c0.4-0.4,0.4-1,0.1-1.4    C30.5,14.4,29.9,14.3,29.5,14.7z"/></g></g></svg>